<svg width="51" height="51" viewBox="0 0 51 51" fill="none" xmlns="http://www.w3.org/2000/svg">
<g clip-path="url(#clip0_24_16)">
<path d="M49.832 0.901464C49.3692 0.459316 48.8059 0.165682 48.203 0.0523736C47.6002 -0.0609342 46.9808 0.0104048 46.412 0.258662L2.13083 19.5026C1.45546 19.7961 0.884164 20.3236 0.502425 21.0063C0.120686 21.6889 -0.0509706 22.4899 0.0131403 23.2894C0.0772511 24.089 0.373683 24.8441 0.858079 25.4417C1.34247 26.0393 1.98879 26.4474 2.70031 26.6048L14.3337 29.1785V45.1549C14.3331 45.8901 14.5298 46.609 14.8988 47.2204C15.2678 47.8319 15.7926 48.3085 16.4066 48.5898C17.0206 48.8712 17.6963 48.9446 18.3481 48.8008C18.9999 48.657 19.5985 48.3025 20.068 47.7821L26.6108 40.5444L36.3965 50.0705C37.0051 50.6683 37.7905 50.9989 38.6044 51C38.9582 50.9995 39.3097 50.9379 39.6463 50.8173C40.2015 50.6225 40.7008 50.27 41.0944 49.7951C41.488 49.3202 41.7622 48.7395 41.8896 48.1108L50.9142 4.5473C51.0517 3.8882 51.0235 3.20006 50.8327 2.55742C50.642 1.91477 50.2959 1.34211 49.832 0.901464ZM2.88108 23.0079C2.86555 22.8928 2.88741 22.7753 2.94279 22.6763C2.99818 22.5773 3.08349 22.5033 3.18357 22.4673L40.2357 6.3649L15.4397 26.1751L3.26488 23.4815C3.1606 23.4656 3.06481 23.4092 2.99453 23.3225C2.92426 23.2358 2.88406 23.1244 2.88108 23.0079ZM18.0321 45.5302C17.965 45.6044 17.8795 45.655 17.7864 45.6755C17.6933 45.696 17.5968 45.6855 17.5091 45.6453C17.4215 45.6051 17.3465 45.5371 17.2938 45.4498C17.2411 45.3625 17.2129 45.2599 17.2129 45.1549V31.3957L24.4451 38.4361L18.0321 45.5302ZM39.0832 47.3992C39.0646 47.4889 39.0253 47.5717 38.9691 47.6395C38.913 47.7072 38.8418 47.7577 38.7627 47.786C38.6836 47.8142 38.5992 47.8193 38.5178 47.8006C38.4364 47.7819 38.3608 47.7402 38.2984 47.6794L18.0785 27.9958L48.066 4.03798L39.0832 47.3992Z" fill="#AF0EE7"/>
</g>
<defs>
<clipPath id="clip0_24_16">
<rect width="51" height="51" fill="white"/>
</clipPath>
</defs>
</svg>
