<svg width="51" height="51" viewBox="0 0 51 51" fill="none" xmlns="http://www.w3.org/2000/svg">
<path d="M45.8105 6.62439C45.4262 6.29251 44.9585 6.07211 44.4579 5.98707C43.9574 5.90202 43.4431 5.95556 42.9708 6.1419L6.20358 20.5862C5.64281 20.8065 5.16846 21.2025 4.8515 21.7149C4.53453 22.2272 4.392 22.8285 4.44524 23.4286C4.49847 24.0287 4.7446 24.5955 5.1468 25.0441C5.549 25.4926 6.08564 25.7989 6.67643 25.9171L16.3358 27.8489V39.8406C16.3353 40.3925 16.4986 40.932 16.805 41.391C17.1114 41.85 17.5471 42.2077 18.0569 42.4189C18.5668 42.63 19.1278 42.6851 19.669 42.5772C20.2102 42.4693 20.7072 42.2031 21.097 41.8126L26.5296 36.38L34.6548 43.5302C35.1601 43.9789 35.8122 44.2271 36.488 44.2279C36.7818 44.2276 37.0737 44.1813 37.3532 44.0907C37.8142 43.9445 38.2287 43.68 38.5556 43.3235C38.8824 42.9671 39.11 42.5312 39.2158 42.0593L46.7091 9.36091C46.8232 8.8662 46.7998 8.34969 46.6414 7.86733C46.483 7.38496 46.1957 6.95513 45.8105 6.62439ZM6.82653 23.2173C6.81363 23.1309 6.83178 23.0427 6.87777 22.9684C6.92375 22.8941 6.99459 22.8385 7.07769 22.8115L37.8426 10.7252L17.2541 25.5946L7.1452 23.5728C7.05861 23.5608 6.97908 23.5185 6.92073 23.4534C6.86238 23.3884 6.829 23.3047 6.82653 23.2173ZM19.4066 40.1223C19.3509 40.178 19.2799 40.216 19.2026 40.2314C19.1253 40.2468 19.0452 40.2389 18.9724 40.2087C18.8996 40.1786 18.8374 40.1275 18.7936 40.062C18.7498 39.9964 18.7264 39.9194 18.7264 39.8406V29.5131L24.7314 34.7975L19.4066 40.1223ZM36.8856 41.5252C36.8702 41.5925 36.8376 41.6546 36.7909 41.7055C36.7443 41.7564 36.6852 41.7943 36.6195 41.8155C36.5538 41.8367 36.4838 41.8405 36.4162 41.8264C36.3486 41.8124 36.2858 41.7811 36.234 41.7355L19.4451 26.9612L44.3441 8.97863L36.8856 41.5252Z" fill="#AF0EE7"/>
</svg>
