<svg width="51" height="51" viewBox="0 0 51 51" fill="none" xmlns="http://www.w3.org/2000/svg">
<g clip-path="url(#clip0_24_11)">
<path d="M51 24.82C51 38.5333 39.78 49.64 25.9533 49.64C21.59 49.64 17.4533 48.5067 13.8267 46.5233L0 51L4.53333 37.6833C2.26667 33.9433 0.963333 29.5233 0.963333 24.8767C0.906667 11.1067 12.1267 0 25.9533 0C39.78 0 51 11.1067 51 24.82ZM25.9533 3.96667C14.3367 3.96667 4.93 13.3167 4.93 24.82C4.93 29.41 6.40333 33.6033 8.95333 37.06L6.34667 44.8233L14.45 42.2733C17.7933 44.4833 21.76 45.73 26.01 45.73C37.57 45.73 47.0333 36.38 47.0333 24.82C47.0333 13.26 37.57 3.96667 25.9533 3.96667ZM38.59 30.5433C38.42 30.3167 38.0233 30.1467 37.4 29.8067C36.7767 29.5233 33.7733 28.05 33.2067 27.8233C32.64 27.5967 32.2433 27.54 31.8467 28.1067C31.45 28.73 30.26 30.09 29.92 30.4867C29.58 30.8833 29.1833 30.94 28.6167 30.6567C27.9933 30.3733 26.01 29.6933 23.6867 27.6533C21.8733 26.0667 20.6267 24.0267 20.2867 23.46C19.9467 22.8367 20.23 22.4967 20.57 22.2133C20.8533 21.93 21.1933 21.4767 21.4767 21.1367C21.76 20.7967 21.8733 20.5133 22.1 20.1167C22.3267 19.72 22.2133 19.38 22.0433 19.04C21.8733 18.7567 20.6833 15.7533 20.1733 14.5067C19.6633 13.3167 19.1533 13.4867 18.8133 13.4867C18.4733 13.4867 18.02 13.43 17.6233 13.43C17.2267 13.43 16.5467 13.6 15.98 14.1667C15.4133 14.79 13.8267 16.2633 13.8267 19.2667C13.8267 22.27 16.0367 25.16 16.32 25.5567C16.6033 25.9533 20.57 32.3 26.8033 34.7367C33.0367 37.1733 33.0367 36.38 34.17 36.2667C35.3033 36.1533 37.7967 34.7933 38.3067 33.3767C38.76 32.0167 38.76 30.8267 38.59 30.5433Z" fill="#AF0EE7"/>
</g>
<defs>
<clipPath id="clip0_24_11">
<rect width="51" height="51" fill="white"/>
</clipPath>
</defs>
</svg>
